<mxfile host="app.diagrams.net" modified="2021-05-20T09:00:17.060Z" agent="5.0 (Windows NT 10.0; Win64; x64) AppleWebKit/537.36 (KHTML, like Gecko) Chrome/90.0.4430.212 Safari/537.36" etag="Ovf1m1Umy1_wAILPEueG" version="14.6.13" type="github">
  <diagram id="jvYYsw6fZvV0kwZjx6TH" name="Page-1">
    <mxGraphModel dx="925" dy="502" grid="1" gridSize="10" guides="1" tooltips="1" connect="1" arrows="1" fold="1" page="1" pageScale="1" pageWidth="827" pageHeight="1169" math="0" shadow="0">
      <root>
        <mxCell id="0" />
        <mxCell id="1" parent="0" />
        <object label="GITLAB&lt;br&gt;&lt;br&gt;" id="z6kZEBDIO18L74ZVLqRq-1">
          <mxCell style="ellipse;whiteSpace=wrap;html=1;aspect=fixed;" vertex="1" parent="1">
            <mxGeometry x="314" y="485" width="100" height="100" as="geometry" />
          </mxCell>
        </object>
        <mxCell id="z6kZEBDIO18L74ZVLqRq-2" value="Management, PM, Security, Business Stakeholders&lt;br&gt;&lt;br&gt;&lt;br&gt;" style="rounded=0;whiteSpace=wrap;html=1;" vertex="1" parent="1">
          <mxGeometry x="120" y="360" width="520" height="80" as="geometry" />
        </mxCell>
        <mxCell id="z6kZEBDIO18L74ZVLqRq-3" value="" style="shape=umlActor;verticalLabelPosition=bottom;verticalAlign=top;html=1;outlineConnect=0;" vertex="1" parent="1">
          <mxGeometry x="140" y="380" width="20" height="40" as="geometry" />
        </mxCell>
        <mxCell id="z6kZEBDIO18L74ZVLqRq-4" value="" style="shape=umlActor;verticalLabelPosition=bottom;verticalAlign=top;html=1;outlineConnect=0;" vertex="1" parent="1">
          <mxGeometry x="600" y="380" width="20" height="40" as="geometry" />
        </mxCell>
        <mxCell id="z6kZEBDIO18L74ZVLqRq-5" value="Projects" style="ellipse;whiteSpace=wrap;html=1;" vertex="1" parent="1">
          <mxGeometry x="250" y="400" width="50" height="30" as="geometry" />
        </mxCell>
        <mxCell id="z6kZEBDIO18L74ZVLqRq-8" value="Issues" style="ellipse;whiteSpace=wrap;html=1;" vertex="1" parent="1">
          <mxGeometry x="340" y="400" width="50" height="30" as="geometry" />
        </mxCell>
        <mxCell id="z6kZEBDIO18L74ZVLqRq-9" value="Risks" style="ellipse;whiteSpace=wrap;html=1;" vertex="1" parent="1">
          <mxGeometry x="440" y="400" width="50" height="30" as="geometry" />
        </mxCell>
        <mxCell id="z6kZEBDIO18L74ZVLqRq-14" value="" style="shape=image;verticalLabelPosition=bottom;labelBackgroundColor=#ffffff;verticalAlign=top;aspect=fixed;imageAspect=0;image=data:image/png,iVBORw0KGgoAAAANSUhEUgAAAIQAAACJCAYAAADt2pB5AAAb70lEQVR4Ae1diZtT1fnmX0lmWKQgsqig/dmyMywKqKBUKigosmi1aKVWxK3WpbbWXauiCMwAgghCp4CloBQXCoILIpYtmWH2PTNJzrnv73lPcoc7k2XuzV2SDMnz5MnNzc2993znPd/yft85tw8Kr4IEDBLoY9gubBYkgAIgCiDoIoECILqIo/ClAIgCBrpIoACILuIofCkAooCBLhIoAKKLOApfCoAoYKCLBAqA6CKOwpcCIAoY6CKBAiC6iKPwpQCIAga6SMBRQGjtIcjmRsimesjWZmjhji4XK3xJJwENEFFooTbIpgb11tpaoUUjgKal+6OjvzkGCE3T0PrxelTOvhrBacNQe99sdHy1z9PGOCoZr08mJURdFZreeAoV00cgeN0INDz7AKJnfoyBwqP7cQQQ1ASR44dRdec0BCZcgnOjixGcPBi1K+Yjeu6kpw3ySG6OX0aLhNH28Vo1oM6N6Qu+CYzGFx9WWsPxC6Y4oSOAkC2NaCl9FRUzLldgICD4rpx1NULlG6CFWlNcvrBbSUDTlIyq7yjpHFBKhmP7ofKGKyDrawApPBGWI4AQVUHUPb4MgcmXdgFE8NphaHzjT8qn8KQ1+XqRaATRMydQMXOk0gz6gOJncOplaN+9CVqoxZPW2QeEJhE5+S0qZ41EYPyALoAITPwZapZMBwFTeKWWgNbajLYtb4MDyAgGbgcmDUL9E8sg66pTn8DBX2wDQutoR2jvdpwb2zehMbSDgUk/Q/jEsYIfkabTRHUF6h5bhkDJ4AQZBsZfgqqFUxH59qs0Z3DuJ9uAELXnUffw7Tg3JuY3JCB83AC0vPUnyOZ65+66l50pfOQAquZPSNCwSpZj+iI49VK0frTGk1bbBkT4+8OonPOLBGR3AmNsP1TdMRXR4GlPGpRfF9GU5mzdsQHBkkE4N7ZfcjmO7YfGFx+BbG4ApHS1ifYAoWloXv0cgtOGJm8Iow2GT9ePROiTD11tSF6eXJOKyGv860Op5ReP2GqWzUT01PcAiSoXX5kDgqFSuB21K25L7j/EG6Ico/ED0PCXh0DyqvAySEAIRM/+hKqFk3sERMUNo9C+d5vr7G/GgCAZFT56EOdvL+mxMdQSNcvnQlScch3hBnHn/CZpaZJR3fmbTnNrGFQk+hoeX+w6SZUxIGRLE1o3vomKmVf0DIjRxTh/yy/Rvn8ntPa2nO8oT26QGra9DXXLZ6tILBkIuuwjSXXjSIiaSpXzcOseMwaEii4eW5JARnVphBHh1w5H01vPgUAqvKA0ZfTsj6ApSCWz7vvpq4XKy6C1uUdSZQYITSrbR1o1MK4rGdW9Efr3wMSBqLlrGgRp2MILioza/BaC1w03DQjyFPVP3gNZ7x5JlREgmOYOfbIVgfH9TTdGkVQlgxE+cbRAUgGKva174h7TGpYDi4lDJhDD33zp2pDKCBC0Y3Urfp06bjaYCl1D6A1qeedpaIynL/JX+OjnqJo3LjkZlUJ+HFTByYPQtqPMNellBIjwd/9F5c3XJCRijJ2fbJvmpfrOqRBVAdcalBcnFlFF9wcmDbQsQ5JXjS8/5hpJZR0Qioz6M4LTLsuoMSqe3r8jL/rNlZvUNLBcoOnVx8yb224ao3rpDETPnnQl2rAGCIZKHSHUrlyUMneRTDMY9zEj2vTqE67IOi9Oysqo4GmlKY1ysbLdSVJFwo432RIgyEyGvz6AqgU9M2spGzimL2ofWghRdc4VhDsuIadPKAVCuzaZ5m+SyTFQMgj1jywAM81OvywBgoWzrZvfsdUYNvD8vHHo+HKvKw1yWkCOno8aNtKhssPs1GSdbWofSapZoyDOOz+orAGioRZ1qxZZCpWSNTA4fQRa1r0MrdU9gsXRjnTqZCIKUXkGlbeMyRwMcX8ieO1whHauc5ykMg8ITUKcD6Bi5nAExlngH7o5RASIIqnungnZeHHVSJBhVLmLmVfaBkRgyhDUP3N/rN7SKcAC5pcUYqFs6J+buhaBJunsZBohYR/j6WmXIXLyG7Da+GJ5kb9peO53CE4ZYh8QEweietmNiJw45qj4TGsIlnnVLr8J52xqBx0crLdsWf1MLJ52tEm5e7LI8SOoWtitsjrTQTU2VkkV2vOho3NfTAMifOwLVM7+uWV2UgdA90/WClYvmQFReTZ3e9DJO4tG0P5pOQITL7HO36QCzdh+aHr3hZgf4VCtiTlAaBLN7z6P4NQhDjamPypn/Rzt+z52Uuw5ey6WvzW9vMq2qeg+sGrunR2rando3kbPgNCkQmDd43dnTEZ1b4T6zorsCQPQ9ObTrtcJZh0lmqZqSqsWmCgmSqUNUuyvmHU1Og5/5hin0yMgVGXU1/9B1cIpjqObyZq6J++NpXOFNzOTsgIOTUP7Z+WqtjTp4EjR2WaODZYMRsOTSx1zznsGRFsLWre+Z5uMStU4jhr6JyRseuWLtl0INDzJmW2J8y5SycXs/sDYfjg/5xo1UZizx+2+egQEp/bXPbzQlcaw0RUzrkDrtrW9d/6nFJANtWqyjdlOtnpccPrlaP/Xh46UJ6YHBBMxiowa4Vh00b2xDD9rf3uTKke3i+5c/L/ib3ZvBm1997Y79Z3zPxtfeBiywX41WlpA6Mwap+M5dfMJ5xnbDxUzRqh0rlocIxd71cY9ceZ24yuPpZ+7YsOHoDzJ/FYvu8ERkiotIBQZdd9skDNI6EibjTCej7WCraXMbfS+AtzoqeOoXjwd1ITGNju6PbYfglMGoX3fDtsRW1pAhA8fQOWcXzrGTqYSgjIbD8ztfZVUUqLj0KcIZlIZZXXAjemL5nf/qop37SxBlBoQUqJ5zQsx3p0rmli9QQvHM1lW+avR6Di4x4Zyzr2/sjKq+a1nXJWdsV9q7r4hNqi0zOd/JgeElKrMq/6p5c6SUalAQpJq4iUKgAzR7CA8l2AhKs6geuEkzwBRceNV6Di039ZqM0kBEZum97k7ZFQaUNQ/dR9kXZWtBuUSIEJ7t7lCRhm1gnGbi4s0PLHYFmuZHBChVrRuX+caGWVshHG76vZJCH93yDHWLWvgIBklJRr+eA9sVUalGjyp9pOkunU8OKsO0cxIqiSA0FRKuu7385OuaGLsQKe3SVK17SgFJwLl9UtEFR1ftfh6z8yF3heqAHfPloyJvkRAkIyqPKe4gZQLWKRCqM395DvqVi7I+9I6TuLtOFCuHGW9o7z65PzPxpcfzbiSKgEQ+gJYydY7cr1R4/qh4saRiLpQPOqlxiHd37T6L5bmbTolW0VSLZ2pqtEyaXMCIER1ELXL5yAwYaDn6o5CIQ0b2rk+Y5WXiRCc/k+04gxqH5jrrf+ga2dWUpUMRPuB3Rk5lwmA6Di0D+fnjrFdSJsp4ukp161cBFFd6XQ/eXM+TSL83WE1B5Pp/UzlYOt/JKlWP58R89sVEJpE+/ZXUH/rYNTOLEbtdL/37+v7oWHRNWj9+6No3fBa3r3bNr6Clj8vRe0Myq/Ie/mxz2b40fzIDGgNnENrbRmnC4BgZVSoDmLP/Yis8iOyzIfIYh8id3n8XuxHZEkx6ucMVCV7LNvLp3fldYMRWjQgO7JjXy3xIfJbH6J/vxLy5C7LJN8FQIgwtIovIbZMhHjbB7HSB3GPD2JZdt5Nc4oQGBdbBFyp3viC4Lm+XT2tGOFF/qzJTdzng/irD+Ld/pDldwEWaewLgIi2QR4vg9gwAuI9H8RrPoiHfBB3ZwcQ7Qt8qCwp8oY61x0yBz6bfuVHdEl2ZKbA8CcfxGofxJoiiI9KoDVXAtL8UoZxQGhAuAmyfAHE+oEQ7/OEPogXfBD3ZwcUNFU11/kRSLFCri2ny4GOT7j+mGIExxWjbX4WtAMH7W98EI/7Ytqd/cf3plHQjm8GIuafRhADBP2HliBE2XCI9/2xk/GE7/og/uKDuNd7xEeX+tA6z4fA2ORLJid0iBudbOGcvM/qa4vQcaf3slKm/Q8+iNfjQNABUTYE8vMngFCt6QgrBohwM+TR1RClgy6AgSellnjHB/HH7IAifJcPwfH5YTaoHRpu9Ctn0lO/i37eb30Qr8QHsA4Gfq7rD/HhVGi131sEREsQ8p/zINZf0hUQOijezI6TySindqY/L7RExYSYufDcf6BJpxan32cEg9ougljTH9q5f5v2I5SG0AKfQWwdD7GuX5KTxi9EBD7grT9B4bbM9ce0hAX1nQ1zUjmpyHtnktrhmVRguAAQefBpoL3RlJbow7BEHnsDYt3PIN4vSg0I+hOvxtWTR5EH/Yj2hT5UTSnKDuNnEoSBccWov8EP3q9n5oJO5KM+iLfipj1BO1wAhNhSAjSfMwcIrb0O8sCK1EAwXojhzLMeg2KJD3XX57YfQXMRWuBhdEHNsMIH8UbP2kGZkY1XQP64zSQgqr+G3DrZHCDoZBIUDG88JK2abs5tP6J6WhHCizzUDr/zQbxkQjN0DuZ+kLsWmwOE/GkbxMYR5gDBCxAUZDJ/750/QbNBG53qqT3Z8BmM1/SMjKKpZkRBJ5ImvLPDe9r2Q3w8HVpTBSDSk1R95C6SUfQfejqp4Xd6tIx5H/RGU+QsSUUyanwx2uZ5YC4IBvJBT3Ujn8z22wdXQ/vhwx5Jqj5i4+VdySizFyBCdSbT5XwHnbW2+blHUnWSUXd4YC5ooh+J80LU0mb7ST+OJNUXTwHt6UmqPqLsUusn50V4UwQFEcuEisugIElVkWMklYouvCCjqB2YVyIflAkY2F8kqTaXQGs4mdaX6JOUjNJRZeaT/sQTcdPhYjhKkqoux0gqZS7mu5zMokzJ/7xoAwyqH5mSGADt7L8BkXrphT5pySgzgOAxf48j2MXIIxdJqoqJHpBR9BtUOjsDM5HQf37IvSuAUF1KLdGnSzIr4QQmb4JOJplMhkMuaYlcI6mUuZjlMhlFU8w8kkpnm+yLtH3oh9g8GlrDj+kA4cSF4urseR/Ecvf8CWqJ2hm5EX5WTCiKkVFusZM6E0ntm6nfkAwcG4ZBHn3HA0Dw4kTyc+5pCTquuUJSMdXtGhlF00ttyyKlZJ1qa18x5J47AY1reiXWW/Zx9IJEMrl1MplEuAuRB0kq2u5sk1RNc1wyFzS51LI0wUkzmHZB4ofYfi20qm8BkbiKsLOAIHLZCHLsZDJdcDJJUrEaPGuAGFMM5i5ab3WJjCIY/myVibQIkg/+D9qJ7UAk8ZGZzgNCV2cvu1N+p0iq23xZK63rJKPcqIziAHoyDgYn/Qa9T/TPjaMgv9sIhBNL69wDBEkrOpn0lB2OPGi76dRlQ0sQEPVukFGUEZlIM+lsvWMz/dwyFvLUXiCaOKnaPUDwZklakcl0uCZTkVTXZycDylK50G0+Z4thqBnIRJpNZ2cKBPW/oliiq+Z40kSXMzxEqhuk2mPk8Qdn/QmGn823ZKGSSvkPDpNR1Aw6E+mKE9nNv1g/GHLfH2JgSLJgeh+xtq8LoY3hJggKcvAEhUNRhyKpFvhwfrK3lVTUDjQXvL5TbVHak0VHXoCBFfWfLIXWynmziSEnyYk+Yut0ZJzgSqUZuu9nY8nFM7Z2KPKglqi5zls/QpFRtzkECGoGhuZkImlau8vMye9r+0Gwamr/g9Dqf0yfy9Bqj0Puugui9FLEtIVhXoaTN0XTwZHgoJPZMNtbP6JqahHCjC6c0BAEw8M20tlm+mZtEcS6ARCbRkJ+9RoQbgZk+qWG+rCChipEHnkN4oNfxkHhAmJpOhh5MDPqkJMZWhAnqUwWwxqrnDLZJgCpmWybC2oH1kSSiXTTVJQOhtg5H1rwcyDaFp/nmdxU6Fx2bKIOURNugnZ6D+TuhRBlQyGILjMotHIMQcGw6jFnTIdeSZVJ51r6T7wyilMCbIOBfhTJp7+5BQZq+CKITVdBHn4JWs33cQIqPRC6AkJ90xS/rTWdhfhkOcSmK2PqxkqHmzmWoGA5P0eITX+Co7X1VvdJKs4vpbkgbW4LENQM1I7kZ2hCzcjLyjEMEFgOuWkM5P/KYyZC72mTnzENYTxYaYtmyB+2QGybEZtFbOWmzBxLNcmqYRaM2ow8Ou5wf7ofyai66/1qrQxb90swkInk9EgODDOysnJM6TCITx+EVnUsRjpZXAqAMEgEBPcyExZugVb1X4g990BsGBYrwbJyc+mO1f0JVg/bLL9jaR1XTGGnWTIDFvyO2Kxum2SU7kQyBHfab+AUzK2TIb9ZA605kJJjMI77VNvJAaEfzXUFQrWQX78OsWV0fKkAh6IQgoIjhUwmhUV1moG2oNlg5lFNCrbQyabBEyejyI5mcn/qP2yb4+lsP8TaYojSIRDbp0MLfqkGsd51mX6mBwTJC6od0QHt1G7I8tsg3i92VtWRrrWxWk0nScXFRVwAROc0vUyjC4KBppEm0knNoMBwOThvU2vlctARy8sHJQNND4Aw/CXSCq3uBOSXz0FsHAVBsiOdWTD7G4VEUJC+zdDJpJZgwYobyS6SUVwEJGN2kiaR/IuTTiQ5o00TIE/tAnQwGLrKzqZ5QPAqfDZkuAXy2BqIbVMh1g9yhrfQnUwbq9W4RVJxmh4d14zIKJpCTsglGGw7kTQRccZxzz3Qan+IF7iYCyfNgsQaINRZ+ZS5sIpvxd57Icouc05TcCTRE8/An+CaVKqSymGz0WCnkJamkNrPrLZMe1wRROnVkMc3QGuriZfAme1m88dlAAhGIRoQbYfWEoA88hbEB9fElxKw6XCS08+w/M5xksoOGUXTx2mO5Fvs+g3KVxgKuWsRtMqvTNHP5rs/8cjMAGE8D5cjOrsfYvuNMW2RbtGRtCMgrlZZZczMKNWthahDkVS/dq60jmTU+SkZkFHUbjR9Tsyl4AJwW0ZDfroKWuPpeB7CWRNh7Epu2wcEIxEZgdZ4FvKrZyFKh9pTkbS15PhZk2kBEDyWTKJTa1IpMmpmBmQUTd7TDmgGyuHjmyB/KgciIUciiO6dn+y7A4CImxAynKEayNO71UJXlmeUG7UH1SxHGDl/C/4ES+ucIqkYblqqjOJ90lSQibSTzqbjWDYcsnxpbB4mlxTMgHFM1tlm9jkDCOOVGJ4GPof819LYIqi0gcalDo0dn26bpBVHmoV0OcmjGEllk7UcU4zKiUXWVpTTmUg6kRlFFP7YKoBbp0IeeTs23a6HtRyMYndq23lAqDvToJHhPPoWRNmVMUYtXeen+o2gsOBk6iSVWgHXRrShz+qmX2LabNFvsJPOpmb4xx3QAv/J6jPHXAIEOYso0NEIrfIQxNYpmYWnHGnk/llIYpK0IiiYmbRDUnWSUWYBQSZST2db1g7FEBuZqn4TaD0f8xecGu4ZnMc9QPBm1MPIotAaT0F+thJi8y/iSTIL4SkFTNrXwkTixpv84CjPlMo2TUbRb9CdSKtMpEpVXwq542bIbzdA62A1E6fXZfflLiCMbWuvh/xpB0Tpz+P5EAugoJPJEWiStOqc7peh2TBdSKszkSz6SWX2ku6nvzAUYt/D0GpP9ljWZhSj29veAYImhA5n8xmI3XQ4h5mnvaklOAK5SKeJdHnndD+rgIiTUSzx79F30Mkn8iZWyKc1xRBbJ0Ae5WOkamP0c5JyeLc7PtX5vQOEugPS3hGwKkseeRFi83iIUpMLnhEUevldD6QVncGWDEgqRUZNLkJHT5VRNBVkIjkh16zPoMLJERDlC1UUpgpeU/VKFvd7DAhDS5kPObsPcudca9XeDOvYGT3wE8xtBC1O9zNFRvG61FIp15fubj7idQvrhkF+8TdoLUxVp698NkjJ883sAYJqMhKKOZyfroTYyPDUxKQhqmcuicgwL03kkQlJRUCEbvelT3XTj9EfUpLUP+gGiPWXQnx0A+S5/6ioSzmOOWQiuiMue4DQ74SFHe0NkN+8B7FzFgRLx3uq+NYnEqdhMq2SVDQXXByV/kdK/0F3InusiaTDXKw4GPnZKmgVhy1VPuuiycZn9gGht1pGodUcgyi/I8bYKYaz22jTRyTtNkFBmjiFP6FIKn0FXBPOpXreBVPdqbgHmgryIT0uDVgEsbY/xLpRkD9sBUL1egvz4jN3AMEkmWiP5UMOvwGxZVzPFd8cqatS+xOKpOJK+iYe00QyqnVeCkAQDGYn5JYOhyi/HVrFkViNYw5wC1aQmEOAiN+2JqC1N0D7306Inb+GKBuS+jke9Cf0icQp/InGm/3qWVg9kVQ6GUUQdTEZuhPZ01yKdZeoJxrKL56H1hBPVeewr5AKJLkHCP1OmVJnePrF0xAbhqeORAgKMpkcwey8bilzlr+ZqaTi8y6SlsnpTCRNlG6yOj/pK9BEDIAoGwN5ej9AxjGPX7kLCI4uOpwdjZDfrlWl5kmjEPoTBAXL75JM/FEk1Qx/WhqbK9ImJaMIME47ZDo7Gd/AqKjsCshPVkBrrlBVZLHV3fIXEbkLCKNMO5qgnTsAsf9+iA2XJw9P6U8wHKSTadAUNAEtc9NUUjG6KIkX0hq1C00Qi3SYwUwGBlX5PAnym7XQmoNJV2MxNiFftvMDEJQmo5C2WsgvX7gwk6x7eEomk05mt8iD3AKdxmTOJcPNhGl6ut9AvoPax2giGP2sGwixcxG06u/iQHC3rM1LMOUPIFSpHqcBNEM7sw9i582xNS06OyveeexETiQ2aIl0JFVSMiplTSS5hashv3oprhU6PCtt8woUeQSIuEhYThZpg1Z9FPLgkxAfjIpXfMdHMtV7t+d4KJKK0cb4rilxRUaVGMgogohOJKcXGsknaoX1QyB3zoN2/KM445i79LMd8OQfIIytpcN5ag9E6SgIhn26CWFEwFwD/YC7Y1R0smhDkVGzDQ9f5fEkn4w1kawiZ2Z252+g1Z/K6TyEUTSZbuc3IDhLndri/GHIvXdfMCHUEuxUwxOJ6VyyrN7oRygy6tY4GUUw0NQYZ2e/54fYOgPy2EbFjcSeV9V7/IVkoMlvQLBFDE+ZUm/4CfKbtyE+iM9SpzPIWgWOeDqZS+MFuIZKKkVG3elDlNEFK7K4MBr/p1LVQyF3LIrVOJJb8LDyOVlHebUv/wFhlBTXtDj1L7W4d+w55kUQr/s7y+/4oHZWUyvWMh5dKCKLfgN5jDX+mOkpuwry4EtZq3w2Nsnr7d4FCLV0QVjNchKfrYJgXoEVShz5y32I8KGwM2MkFR1M8hPKz+hcGrA/xI55kCf+EVsHWuUhereJ6A643gUIvXUsvmmpgHZ8A8SHEyDWDFYaIHqvD81zY6vNMNXdwVS3elwyo4iRkAefjT02INxCW6Sf7aL67J2AYBfGqW9Z9wPE9lsg1g+DeLQvQgv9qu6hfpYfkQeLId4YCLFxDOSh1bE8RJ5lJ51Ga+8FhJJUPB/SUgF59G2I965CeEURamf60UFH8sWhEDuXQQseiechpNPyzbvz9XJAxPtDr8o6/W9E181Fy31DEX19NOTB16HV/y8OhovTRHRH7MUBCL3V9C2qTyD68UrIM4fyPlWtN8vJz4sLEHo+hJNo6SvkYQGLk52f7FwXGSCSiaCwzyiBAiCM0ihsO7GCTEGKvUkCBQ3Rm3rTgbYUAOGAEHvTKf4fen+BqX3hHkAAAAAASUVORK5CYII=;" vertex="1" parent="1">
          <mxGeometry x="347" y="540" width="36" height="37.36" as="geometry" />
        </mxCell>
        <mxCell id="z6kZEBDIO18L74ZVLqRq-17" value="App Dev Team" style="whiteSpace=wrap;html=1;aspect=fixed;" vertex="1" parent="1">
          <mxGeometry x="550" y="480" width="140" height="140" as="geometry" />
        </mxCell>
        <mxCell id="z6kZEBDIO18L74ZVLqRq-18" value="Infrastructure Team" style="whiteSpace=wrap;html=1;aspect=fixed;" vertex="1" parent="1">
          <mxGeometry x="80" y="480" width="140" height="140" as="geometry" />
        </mxCell>
        <mxCell id="z6kZEBDIO18L74ZVLqRq-19" value="" style="shape=actor;whiteSpace=wrap;html=1;" vertex="1" parent="1">
          <mxGeometry x="100" y="570" width="30" height="30" as="geometry" />
        </mxCell>
        <mxCell id="z6kZEBDIO18L74ZVLqRq-20" value="" style="shape=actor;whiteSpace=wrap;html=1;" vertex="1" parent="1">
          <mxGeometry x="620" y="560" width="30" height="30" as="geometry" />
        </mxCell>
        <mxCell id="z6kZEBDIO18L74ZVLqRq-21" value="" style="shape=actor;whiteSpace=wrap;html=1;" vertex="1" parent="1">
          <mxGeometry x="580" y="560" width="30" height="30" as="geometry" />
        </mxCell>
        <mxCell id="z6kZEBDIO18L74ZVLqRq-22" value="" style="shape=actor;whiteSpace=wrap;html=1;" vertex="1" parent="1">
          <mxGeometry x="160" y="570" width="30" height="30" as="geometry" />
        </mxCell>
        <mxCell id="z6kZEBDIO18L74ZVLqRq-44" style="edgeStyle=orthogonalEdgeStyle;rounded=0;orthogonalLoop=1;jettySize=auto;html=1;" edge="1" parent="1" source="z6kZEBDIO18L74ZVLqRq-27">
          <mxGeometry relative="1" as="geometry">
            <mxPoint x="120" y="710" as="targetPoint" />
          </mxGeometry>
        </mxCell>
        <mxCell id="z6kZEBDIO18L74ZVLqRq-27" value="Terraform" style="rounded=1;whiteSpace=wrap;html=1;" vertex="1" parent="1">
          <mxGeometry x="180" y="640" width="85" height="40" as="geometry" />
        </mxCell>
        <mxCell id="z6kZEBDIO18L74ZVLqRq-43" style="edgeStyle=orthogonalEdgeStyle;rounded=0;orthogonalLoop=1;jettySize=auto;html=1;" edge="1" parent="1" source="z6kZEBDIO18L74ZVLqRq-28">
          <mxGeometry relative="1" as="geometry">
            <mxPoint x="660" y="710" as="targetPoint" />
          </mxGeometry>
        </mxCell>
        <mxCell id="z6kZEBDIO18L74ZVLqRq-28" value="Helm" style="rounded=1;whiteSpace=wrap;html=1;" vertex="1" parent="1">
          <mxGeometry x="515" y="640" width="85" height="40" as="geometry" />
        </mxCell>
        <mxCell id="z6kZEBDIO18L74ZVLqRq-30" value="Infrastructure as a Code" style="rounded=0;whiteSpace=wrap;html=1;horizontal=0;align=center;verticalAlign=top;" vertex="1" parent="1">
          <mxGeometry x="109" y="712" width="610" height="250" as="geometry" />
        </mxCell>
        <mxCell id="z6kZEBDIO18L74ZVLqRq-31" value="&lt;div&gt;&lt;span style=&quot;vertical-align: sub&quot;&gt;App Deployments as Code&lt;/span&gt;&lt;/div&gt;" style="text;html=1;strokeColor=none;fillColor=none;align=left;verticalAlign=bottom;whiteSpace=wrap;rounded=0;horizontal=0;fontStyle=2" vertex="1" parent="1">
          <mxGeometry x="530" y="752" width="180" height="160" as="geometry" />
        </mxCell>
        <mxCell id="z6kZEBDIO18L74ZVLqRq-32" value="" style="rounded=1;whiteSpace=wrap;html=1;align=right;" vertex="1" parent="1">
          <mxGeometry x="150" y="762" width="520" height="150" as="geometry" />
        </mxCell>
        <mxCell id="z6kZEBDIO18L74ZVLqRq-33" value="" style="shape=image;verticalLabelPosition=bottom;labelBackgroundColor=#ffffff;verticalAlign=top;aspect=fixed;imageAspect=0;image=data:image/png,iVBORw0KGgoAAAANSUhEUgAAAHAAAABuCAYAAAD/PJegAAAc/UlEQVR4Ae2cB5gUVbbH3efuc/G9XXXfvjW9dXVdE4K6rq4oKCYwg5gQQQEjqCgqBjIMOecoOUmSnJE4wBAkI0zOkck5z3nf78Adi3Yaenqqu2dw6vvqq+qqW7fuPf+Tz62+RGq3Gk2BS2r06GsHL7UA1nAmqAWwFsAaToEaPvxaCawFsIZToIYPv1YCawGs4RSo4cOv9hJYJiJFJWWSU1gqybklkpBVLHGZP++J2cWSkV8q+cVlUkrjX9lWLQEsKRPJKyqVpJwSCTxdKBuDc2TYzlRpuTBO7hkbIXeNObPfPTZCGkyOkk/WJMr8wxlyICZfItOLJD2/VApLyuTXgGe1AxApyi4slS2hufLNhtNy8/AwubR7oFzS9cL7ZT2DpPmcWJkQkC6hKYVSVFomZRc5itUGQOicVVAqe6Ly5JX5cXLriHC50i9Y/rNHkPym24XBA+D/6BYo/9U7WK4eECoPTY6SvltSVCKLAfIiVa0+BxDCInXxWcUy73CmoBYBwVHiAOd3PYKkTq8gvf/fvYPl8l5BgtQhoY4g0/bP/UPkzcXxciguX21oSenFh6LPAUQ6krKLpevG03L1wJBzgPvNWakCjKv6hcido8PlyWnR8uqCOGmzKF6enx0jD0yMlP8bHHpeIO8aGyEbgnNUNV9skuhTAJE8PMou65LkmoEhKmFG8pCqy3sFy9+GhKkt3B6eK8cTCyQstUhiMopVYnFYApML5WBcvnx7IEOazIiR/+kXomCafpBMpLbemAhZE5it3urFBKJPAUTyhu5Ikav8gs8BD4L/Y3i4fL3+tByJL5DTOSVSch47BiCZBaVq7xYey5THp0Wr+ry0e5BKNJIMQ2AX90XnaVhysYDoEwAhHqHC9AMZcs2A0HK1ibT8rnuQ/GtCpNrDYjdCAbzOE4kFqpJRu+UgnpXER7+NVqnn/RfD5hMACboPxRVIw8lR6mUadYdj8vTMGNkbky/ZBaVue44FxWWSkF0sE/emyV+HhCqIdXoFy9UDQ6XhlCjZFJIrBRcJgj4BkIxKt43J8ie/n50WvMn7J0TKtrBc9RirKh04R6je4f6pyhSd1ybJ5pAcCU8rkvS8Eg1ZULtpeSWa4SGjQ/vUvBJVx3lFZaLhRzWXVI8BiCrDbScNhkRAENJhBOk4Hf8YHnaO9P2lf4jM+DHD9sBbMzrZxRrUI/lIdmRakaw+lS2j96RJr83J6iR9tiZJvlyXJD02JcvgHamyNjBHTiYVKNg8R1KgOqbqPAYggMHRR+LzZXxAuryzLEGwP7cMD5frB4WqrTOxG0e/LcmSkltSVcH7xfM4PzBORFqRjN6dJvdPipQbh4bJNQND5U/9QuSKvsG6/7FPsPzx7PlVfiF6/6+DQ1UrjPBPlZDkQsnMd1+t/2JgNl2wFUBUDtkUAudxe9LkmVkxcvOwMM2M/KHPmawKAbmxeRyJ8W4YGib7ovNVZdk0L5V+CE5mZ/D2FPVM/zLgTIiBV2odw/nOUe3/2z9EGY9YlXAmNbdEc612jbUq/dgCIGZCbU52sUzZny5PTo+WKy327XwEwnFptTBOotKLqjKP8mcZC4lsiDznUKY8OClSfns2nDjfOFy59/ueQZop6r4pWaIzis4kzH1sI20BEDtHUN1xZaKqJSZ6qYOkOSMQgTc5S5yJqm7QEpV5IqlAms+L1VgQCTKq2tkYXL1u0nmo22dmxmj1A1Phy63KADKBn5IKpN3SeM2CWIlF8IzqvGFImDw6NVqemxUjr38Xp/lJcpTsn65Okv0x+ZohqQohcJpwWPwjcvU92DZHde0qUK60A0TSeGtOZdvCfO7OvUoA4pWR2mq3JF7TVWbiEA4p/HO/EOm0MlFV2Y+x+RKaWqiOSlZhiZg9t6hUSm2o+eApHo7Ll0emRFWYDDdjs/NI0uGf4yJkyfEs9bRtmEalcXQbQMDDYem5OVmlzHA7R6oEBMy7onK1uJpbVKb2AjvJc0zUuld61BU8QJ60waRIuby3ZyXPygA4Q5S7Gk+NVieMcMnbm9sAMtitYblq1I3aBLwr+wYLMRU5TAD2NFfCFLGZxfLRqkQNAwwjWQnt6XPU6avzYzVJgAPlzc0tAJEi1qG8ND9Wpc8QiDrei3NjhayGN2pvkAoVPHV/uvxtaJjLoYEZr51H5t5tk2di2fMxhFsAIn27I3PVy7NyPHU3YkBvcSEeJ+Wov48IO6eaYScwrvZFqEKSgrqjN2XQLQDJF/b+4YztY4J4m1S/R+1KU8lEQr2xkVPtvzVFUGGuEtpT7TAjdXoGyRPTosVvS4qm6RYczZQd4blav8ScoO7tJo1bAAanFErTGTHlniex1r8nRmqO0xvAmXfsjMjTVWo4Ep4Cxp1+0Up/6Ev4FCr/Gh+pa3zG7E7TFXbp+SXqsdrF5G4BGBCVJ/eNj5TLzhKOyjnLHOIziw1tPX7EORqzJ00u62VfoO4OWM6eQSJJZqBaYXCK1IRVndckqpkh7LFDGt0CcH1wjtyC3TmboiJY77ctRUsxHkfu7CIo1Pgnq5Nsy7I4A8LO64BJovzBSVHitzVFwlILq5zAcAvAxceztKKA7WOCZPFZykB9zRMb0obDAtdiS5JzSoTEAOrJTgJ7qy+kk9UC7y5L0JIV2Sx3pdEWAElbzT6YqcT1BIDU4ghN/CPztGbYaVWSZkDI9niL6Ha/BzuJ7Sa9GBCd53at0S0A1wfl6MJbSkFMDBXaY7O9MRBGnnAlKLlQJu5N1/iSVdpXDwjRZAGTt4YwdhPYW/3hQVO9QaO4kxh3C0BqbKivn52YIGk2J1ZLLHZIIBJHdYJvIhpNiZJrB/688MkuwgI+DEjaDyKiRWBEfhvmqEzdsCrj4t2oU1YKVDYB4haAhBFwDXEPA2fCrKhGxVV1wxaw3HDU7jStitO3SdVVhUiOz+IV3jYyXJrOiJb3lieqBmm9KF6aTI+W+mPCz8nvOj5r92/1WLsHyfiANMktrJwf4RaAeIAsSoJjmYzGPX2CpdvG0+pguJsOpK6YnFMsHVckKng4SXZLASHPvydE6mInGI5FTknZJbr8g0/XwlOLtIo/ISBNFwNXtMzfbgBNf1Q2CNEqs7kFIN4gapSFSGbdJYNgFfUPITmqy91JYhPkDtmZqvVDCGf3zhqYe8ZHyv6YPM0YIe3G1mJ/8orPrEQjY8Jv7NKzs2OEVQPWeRqC231ElbdaFK/etquBvlsAwiGEDC3mxWn5xkwEdXffhEgJTi6s9PoWAD8cny8vL4iVF+bE6HcPfPtg586KgZCUn8cGkVjwdCyhQFepkdmJzijWlXTMkTGdOl0oLebGea3GePvIcK30u1qachtAXsA3fPVGR5S78qhSpIblBmsDsyudF2XJIUszdE8rUqOOYbdrZ5Wcibn4GmqYf6o6X6hUVqDVHRWhucyB21P0S2CS8lQ7dkTk6ko2k7gwDOuJIwuoBm9PdbnK7zaA2Dk8RdZRsoDJrIHBIOPd3TQ0TFdGs1gJmwmno3ohCl6mr3bGwBe8LEzCu3V0kLC7rF7jgxtsolnXClHxFj0BmrVP1HXrRa4v8nIbQGNoUUltFyeUJ7atgyHQxssbujNV1gblyN7ofI3rSCH5aue7iUn70vXjGetYreeA+vteQTJlX7oyHq49FX/iUGs7T5wj5X8fFqb5UkPj8x2rDCAcjZ1otyRBV6RZJ4VUElfhPLA+FHWLumIxkK92bDTO1oWyOJgDlvrjlWIr+aSt6cwYjwOo8Wn3IPGPyHNpNUOVAYQ7UItI4kcrEzVHSoxl8qRWQGvSOVJovGqcGczFV+uTPA6godHKk1ma/z2f9HHPFgDNS0gyT9yXLk9Mj1Z7ATdBCGI5u+M5M1FPHRkvNnLJ8UxNNKNp+KcMT73Psd+FRzNdWtlgK4AYfKoFhBFzD2VKq0Vx+vkzi3cJ+lFbNUUyYTy+oWDpiJHAz9d4TwJZ5wPTXGizFUDry/A6Wa/CF7H8h0uX9aelw8pEeWpGjC7DYymeL3Zyq/8cF6n/gAFIjpzPb6SP2t3DU6IkNuOMDWQpPd8uVtTeE9eWncjyvgRaAayu59hrvqtn9VxFy+4NeIQS6wKztSJCZobsDUskPAFWRX1uCMrxvg2srqBZx4VHCYhohvsmnpFEUxaDkKh5ktyT96dr/GrMAktGvJEXRSsg/eqFWgfu5NxjKtTJ+35xmU/A9sXke2U/mVSoH2wCIraaWuO4gDR5aV6cPPZttFZYXvsuTr/kJVUIeAT9849kqkODU1aRtNh5jXRk3VHhcjSh4Be0quiCzwEkD8mfGtQfGyH1xoR7dOd7xcn70iUjv+ScJX5IJCUsQCPDZJLcOBGsPid2vFDcaBeIOHttlyRo3FkRYI7XfA4g9oi//2DgcJ8nd76b4OvgD1cl6kc52DY2vExO2bmC5PF94eS96bryAFvpDemDCfibMFbbsfLdlc3nAPJdwzvfJ3htcS6pKnK3fNr23dFMXY9CgZqcLRklKhJcf395oqpNwLNLui7Uz2+7B0r9MRH6XYnHqxGucIcrbeA01rxcN8h7Hp4hJBkjlobwYUr7pfHqmdYdHX7OPz2Ztt44ooX4owVW4Lm6+VwCUVcktvkfUG9na1CLqGzytXiYHPFIvaUuHZmCb0twrFyHz+ZUmqtcY22H/cEWdVqdpIteHSf1a/iNWqcOOO1ARqXX1vpcAg2YfKbNQim439uS6EsmYb6s1u6wIlH/CsXQw9VjtQEQl53vzVkXQiDrS6J68914xo2mRul3JYQzld2qDYAMnNXXfC7Gn/B4YxGRN4FyfBdMyicJzebGyrHEgko5LlaQqxWAeF/U3Vg6j1rRZYVeyH44EteTvzEPOEr8T9xbS+K10l+CI+DmVq0AZBp40IA40j9VDbs1T+lJwnqjb8CDKVky0WdLiiYL8MKrslUrAM1EkERWkM08mCGvzI/VGBF331fufVXABTTUJTHejcPC1FlZF5SjC6ArEe4Z0vziWC0BNKNkMRFZEgJ9vgDG1cbJIV4jN8lOpqQ67YyJBAFxJWOlmE114/O1SbLiZLb+T05lAnVDC2fHag0ggyZGxEMl0cwfKAz3T5OnZsZIg4mRmkVhOXp12vlymQ84W8yP0484t4TmqKqkwE16zORbnQFS2evVHkAzISwFBMA+kj9l8S+5S+LH6rSTSWFscVnFWk88809UZhb2H2sMgPZP/eLosRbAGo5jLYC1ANZwCtTw4ddKYC2AzilQUlIiWVlZUlhY6LyRF++UlZVJcUmJ5OfnC2O7GLZKSSAEYPIpKSkSFxenwHDNbHl5eZKamirJycnCOW3Hjh0rERERpolPj5mZmXLq1CnZsHGjxMbFSXFxsRQVFUlpqfP1J7m5uRIfH69z5ry6bZUCkAmHhITIU089Jddff73ExMScM/kTJ07IQw89JI899pj8+OOPKn1dunSR48ePV4t5BwQEyN133y2vv/667Nq1S8cVHBx8Xg2xZ88eueuuu6RevXpy7NixajEP6yAqDSATfvrpp+Xaa6+V2bNnC1zNhiROmzZNbrrpJmnYqJEcOHBAcnJyZP/+/ZKUlKRAo0o5RwqQSqSUa4mJicoMHJHsgoICld7Tp08rI0RFRUl2draqPVQfz3ENZkI6MjIyyrUB/fHcwYMH9R2ocPrjvQMGDJAbb7xRlixZIj/88IO0a9dOhg8fru+GOR03xj9v3jyd72233SYjR44sZ1jmHRQUJDAtDMoxMDBQNRBjiI6O1jHTJxKOVmIMvIcjzM8c0Ga0R1slJCTofKEx43ZFzbsFYPPmzaVVq1byzDPPSGxsrA4QIiJtr776ajmADOLZZ5+VvXv3Cupn586d0rp1a3n88cflpZdeUnAh9oQJE+Sjjz6S1157TQYOHChx8fE6kffff1+aNGkiLVq0kJkzZ0p6eroyzLJly+TJJ59UTdCsWTP56quvlEAQAcb5+OOP9TnGOWvWLCXWihUr5M4775TrrrtO33/fffdJ3bp1VSKnz5ihqtQKIAwJM7311lsyZOhQ+eyzz6R9+/YKEIQ9dOiQtGnTRufHfBo2bKhjWrNmjT6HlCOxxuzAPHPnzdPxM96hQ4cqY0ybPl3S0tJk7dq10rZtWx03Gmzu3Ln6LuuYKjp3C0BAmDp1qqpLOBkOguMZwPTp0+WRxo2VkICD6tm0aZNyG+fdunXT3wAN8fft2yd9+/aVm2++WYkEYVB1TzzxhAAgvyEwqo9+4PaXX35ZQUMCT548qYAxDjiad3To0EHfP2/+fGUyA37Pnj3ljjvuUKYDaIg+btw4lQirLTdSs2rVKnn++edl9+7d4u/vr0y3efPmcs1h7P2RI0fknXfeUTAZe3h4uJoRnqNfmPfLL79UCUbiABcTNGLECJXan376SW699VYZM2aMaido+OCDD6qmqAg06zW3AHzzzTdlwYIFKjXjx49XyQDQr7/+Wm0LHAmBABCuhyuxJXAWgCGtEJ+Jo0r79OmjzMBv1COcCuF4JjMrSyKjolTdffrpp3L06FEFFoBnzJihAKJykJat27bpxDds2KDqG4nt1KmTSjBEHDJkiALMO3h/48aNZc6cOeVmwBAGlYfafeWVVxQ0AIHIH374ocAE9AswqEOk59tvv5VHH31UQWZutOe3FUC004iRI1VlQr+HH35YTQd9wSgPNWwo33//vTLv9u3b5f7775eOHTuaITk9ug3g4sWLBVXGwND/b7zxhkycOFEJinqzArh69Wpti8Rh/5g8RIIAgAyAEMc4RfTT6o03JCY2VlUbbfz8/OSRRx7R5wHx7bffViKhYgcPHqz2aOXKlaqCYASz9evXT+0yAKK2cEjQGGFhYcpQ2DhUvXVDFSP59evXV0IyRxihadOm+jzMgvcKI+AM4dQtXLhQmYY5ASBaiHvMk/6/+OKLcgCxvahfxoEtZf5/veEGZSjMBTsSiMq+0OY2gICHjsd2TZo0SV+4Y8cOQRogqhXAdevWqYpFMg8fPqyTYuBwtZHATz75RI04E964caNyPm2RBIz7e++9pyqP9kwcQnGO44RjgjoCWLzgLVu2lDMJ6hS7VxkAcTh69+4t2ElsIH2wY/dxZpgPksb4YCoYCIfHMCXM8cADD+g8GCeAYw6MBMJ89GsARI1DGzQOKpYdR4d3XGhzG0C4nRchGdgnbACeV0UAAgiTQIXiyQEchGciSC8caABEOiMjI+XFF19UIuLZrV+/Xp/FVsIkOCk4RKGhocpE2LVRo0ap0Uc1QXyeQxXhyKCKYASrBOJ8oSlwTngf982GlkDacK7QCmgAdrxO+mJszAk73rZdO1WdMBM2GJUK8TEdOGSMEW8dxqoIQCR5T0CAMgaq2NAGht3p72+G5PRYKQDxvgAJdQABmTTcjgrhiFQxCUQf5wIOeuGFFyRg715VI6grVC0qAu8U54L2EApGYPIASD/YBTxV+oJg33zzjTofEB61yD2konWbNuoUwAiotKVLl+o7zHPYLAiPJGAzsa2cM7ZFixerGoYxUJtsvJ/QBxXGc1ZXHinbtm2bjr9nr15qt5o0bapMApjszIm+YSLCLVTloEGDpHPnzjJn7lydW9euXXU+jIP3IQjDhg1TL9x4ojA0zHOhrVIA8jImCscySFQGqgkuQx1wH1BDQkP1OgM8eerUOTYG9YRHR/zGfXZUJIOFG81GX4ZgcDe/2TjyLohLRsV/1y7t39ynDYzAOxz7TDwbg5q2efn5qgbp37ybOeFdngoMPEcqzbtpB3OyYycddxNW0Q5JxmvmHA1k4kCYFhqacejERDQUwotFCqGrK1ulAKRDJghXsjMA89sMhiOgcJ1zBs+52bgHAOZ52lj7M+3Mu2hLH9aNZ7gOM7Fb+6ed4zvMs7yHe2bjuYKz9tT0Qd+cFzqM2zzDfdM/zOq4c4821nacm3dbz02f5mj6ZW5mPOaes2OlAXTWUe1131CgFkDf0N22t9YCaBspfdORVwA0Ns5M0WoHuHe+jft4l64md8/X18V4z+MAYozxuPDAAI4dpwTPE08Oj9HZRlucBGIucp3G1XfW3tPXmYtxUjz9Llf79yiAAIA7TI6UxDLSBHi47STESZ/hsjvbeD4rO1tGjhqlhWHHlJez5zxxnbEQEpBnRSNUl82jAMKx1PHIXpDfZOKk3whSKR2RigIUAndiNtqyweVIZkJioqSkpsqgwYO1YkGMRGkKBoAxjGrmefKP3CcPSmBsXHLiL5IPBw8dUk1gYk4yK2RrGAPvoj0bsSfPkAqkwmLiVTQI1YLu3bvrc8wFjUANk3a0p60Ja5gX8TExXXBIiI4JbQIj2Ll5BUAyJqPHjFGVSfqM7AyEZrLsBN1kd0jDsUGcZcuXazGVwLivn58+89zzz0uz5s3l3Xff1QoHxKYtlRCkmXQeCXOYBRAh7sBBg+Sbrl3lueee09og1RNAQKq7fPmlZoRIYRkbS46X9Bpjpq9evXopA5DCI4tDlYEiMH1T3qJMxLvJFpH0JsHAnKjvMU5qf1906aJpNZjA1fjOVZC9AiATgWhMEvCwfXAjkwGE5cuXawKcZRhsqM1x48drBZ1sBvUzEtaoLwhE6otiMoDTF4ljQCDLQ72ONN2WrVtVAkjd3XLLLcow2GJSWrfffrssWrRIJYbcLCkv+uI+Y4QByDSRHCdlh+SFR0ToePr37695USSL1Bm1O4Ax5SnSZoyD9CLnAE3mhVQh2uNCTpurwJl2XgGQ/B4JZ7iXBDJOick2oDbJX3KPWiEqhhogEkuSG7tDFYASDMSgPWUacpXkS1k0de+996p00e/8+fPltZYtZdjw4Qo2tTeIDqPwPACSqEaVcw3nCOkklwsjUYcDFK5/v2yZJs5R+ajoocOGaUIccKlIwAiUkUi2U/Ns1769fNypk5oDpJhEOvVG6oKoU4CukQBCRLiVBLhRoXA3qgZAKGQCIBwKgGnp6Vq1MADCAJwbW4UNvOeee7SERLIYCcOm0jdtAZwEOVL1QYcOqs5gGCQDlQYzIBVcQ8Ip3KLyWPbAygCkDnVs6nZIEkVlK4BUU+rUqaPagfeSPOc52mJnmV+PHj20xoe2wJHDRtZIAD/44AOVFDgeFYh6geBwJdcoTQEg9TAAhLgtW7Ysl0A8VuppeKyoXiT1gQYNdFUAfVOdR1JxZgAZoLCBAI0tMxLPfaoFEBzHxgogEgXxkWaqEdhE0xfvxZmiHEXtDwkEwCuuuEKdFH6zAxAVdvrlWXacJZgDzYN24J6dm1dUKF4oRV88PQDDY6OAiVRR/ERSmCCqDq+Qsg/rVYwEAiaqjVUAOBNwNs8jsaguam3YLZ6FsBR36Re71aFjx3IAkfYlS5eW1y6tAKJC6RtmoI6HPab8hVQyXsDHFsJMjJf2ppiLZkH9UkLiOuCPHj1aGRNbibPDHCjc1igAkSYAwx6wOsy46hAD20HlHmITGzL5Ro0aaYV/1uzZ8vkXXyjHQyyq1zgXgMozOCnYTSQDjoc5UKW0MQuncEhQe5927qzA8I7cvDxZuWqV2imkhWv0z7MABnFR56hPFk6xpAI1Sq2RsAVJbtCggXqdaBKAQcJxgriOCiWUgVHwdvFacaIYFxqEZwwN7JJCj0ogg8TTRI2gTgDUXMP+ESIQc9EGAqmqSklR0FGD7IQJ2BR2wKI96gpVij0xz8IUxJK8h74AB0B4NxLBu2kLcXFmuMc1jvyG0fjNuGjPNcZDe/riWdryHt7NNY48h3PCWHmONtYxoQkYM2My77QLPPrxOIAGMCbluHHNatQNkTlaz2lndnPPsS/T3nrdtLW+27TjyOb429k1a7+O56YPx+tmfhzN+xzbVPW3VwCs6iBrn3dOgVoAndOmRtypBbBGwOR8kLUAOqdNjbhTC2CNgMn5IGsBdE6bGnGnFsAaAZPzQf4/R2xtM2HJRcsAAAAASUVORK5CYII=;" vertex="1" parent="1">
          <mxGeometry x="168" y="791.73" width="82" height="80.54" as="geometry" />
        </mxCell>
        <mxCell id="z6kZEBDIO18L74ZVLqRq-35" value="" style="rounded=1;whiteSpace=wrap;html=1;align=right;dashed=1;strokeColor=#FF3333;" vertex="1" parent="1">
          <mxGeometry x="314" y="782" width="326" height="50" as="geometry" />
        </mxCell>
        <mxCell id="z6kZEBDIO18L74ZVLqRq-36" value="" style="rounded=1;whiteSpace=wrap;html=1;align=right;dashed=1;strokeColor=#FF3333;" vertex="1" parent="1">
          <mxGeometry x="314" y="852" width="326" height="50" as="geometry" />
        </mxCell>
        <mxCell id="z6kZEBDIO18L74ZVLqRq-38" value="Pod1&amp;nbsp;" style="whiteSpace=wrap;html=1;aspect=fixed;align=right;strokeColor=#190033;" vertex="1" parent="1">
          <mxGeometry x="330" y="787" width="40" height="40" as="geometry" />
        </mxCell>
        <mxCell id="z6kZEBDIO18L74ZVLqRq-39" value="Pod1&amp;nbsp;" style="whiteSpace=wrap;html=1;aspect=fixed;align=right;strokeColor=#330033;" vertex="1" parent="1">
          <mxGeometry x="330" y="857" width="40" height="40" as="geometry" />
        </mxCell>
        <mxCell id="z6kZEBDIO18L74ZVLqRq-40" value="Pod2&amp;nbsp;" style="whiteSpace=wrap;html=1;aspect=fixed;align=right;strokeColor=#330033;" vertex="1" parent="1">
          <mxGeometry x="374" y="857" width="40" height="40" as="geometry" />
        </mxCell>
        <mxCell id="z6kZEBDIO18L74ZVLqRq-41" value="Pod3&amp;nbsp;" style="whiteSpace=wrap;html=1;aspect=fixed;align=right;strokeColor=#33001A;" vertex="1" parent="1">
          <mxGeometry x="420" y="857" width="40" height="40" as="geometry" />
        </mxCell>
      </root>
    </mxGraphModel>
  </diagram>
</mxfile>
